<?xml version="1.0" standalone="no"?>
<!DOCTYPE svg PUBLIC "-//W3C//DTD SVG 20010904//EN"
 "http://www.w3.org/TR/2001/REC-SVG-20010904/DTD/svg10.dtd">
<svg version="1.0" xmlns="http://www.w3.org/2000/svg"
 width="300.000000pt" height="407.000000pt" viewBox="0 0 300.000000 407.000000"
 preserveAspectRatio="xMidYMid meet">
<metadata>
Created by potrace 1.10, written by Peter Selinger 2001-2011
</metadata>
<g transform="translate(0.000000,407.000000) scale(0.050000,-0.050000)"
fill="#000000" stroke="none">
<path d="M3022 8095 c-108 -278 -109 -279 -150 -198 -47 91 -92 63 -92 -56 0
-78 -15 -117 -83 -219 -94 -139 -119 -270 -80 -412 15 -52 15 -86 3 -98 -41
-41 -23 -132 30 -152 47 -18 50 -28 50 -156 0 -75 9 -145 19 -155 11 -11 20
-180 22 -379 l2 -360 -106 6 c-402 25 -1419 240 -1416 300 1 39 83 106 142
117 62 11 64 10 29 -18 -52 -39 -30 -86 48 -102 35 -7 57 -21 50 -33 -18 -30
25 -24 103 13 58 27 77 28 117 7 65 -35 246 11 278 70 32 58 54 69 130 70 91
0 200 72 235 153 19 46 41 67 70 67 70 0 184 97 155 132 -21 25 -28 25 -57 -1
-58 -53 -93 -36 -41 19 35 38 42 56 25 73 -31 31 -152 -71 -165 -141 -9 -44
-22 -53 -85 -58 -57 -5 -99 -28 -170 -95 -81 -77 -105 -89 -180 -89 -95 0
-225 -46 -225 -79 0 -31 -54 -26 -110 11 -34 22 -82 30 -159 25 -142 -9 -151
36 -23 111 261 152 390 370 308 518 -13 24 -22 63 -19 87 3 26 -15 58 -46 83
-28 22 -51 59 -51 82 0 57 -69 122 -129 122 -31 0 -64 21 -91 60 -85 120 -212
73 -262 -97 -15 -52 -48 -104 -81 -129 -85 -62 -165 -286 -147 -412 11 -85 8
-100 -23 -110 -46 -15 -127 -137 -127 -191 0 -67 -23 -61 -325 88 -162 80
-295 141 -295 137 0 -5 -15 -123 -34 -263 -50 -374 -50 -1415 0 -1773 251
-1788 1234 -3418 2724 -4517 219 -161 180 -162 427 6 2089 1417 3046 3694
2732 6497 l-12 107 -52 -34 c-65 -43 -417 -229 -432 -229 -7 0 -31 36 -53 80
-23 44 -59 91 -80 105 -32 20 -40 47 -40 139 0 147 -65 324 -139 378 -31 24
-67 78 -82 125 -45 144 -124 200 -227 161 -18 -7 -32 -22 -32 -34 0 -37 -63
-92 -92 -80 -49 19 -128 -49 -128 -111 0 -40 -15 -64 -50 -83 -27 -15 -50 -44
-50 -66 0 -21 -15 -81 -34 -133 -55 -156 64 -353 291 -480 155 -86 160 -121
17 -121 -63 0 -122 -12 -145 -29 -46 -35 -109 -40 -109 -10 0 35 -132 79 -237
79 -83 0 -104 8 -131 50 -44 67 -121 114 -209 129 -58 9 -75 22 -83 64 -13 69
-134 171 -165 140 -17 -17 -11 -35 21 -69 57 -61 31 -88 -29 -31 -43 40 -47
41 -60 7 -17 -44 80 -130 146 -130 48 0 79 -31 90 -89 10 -56 130 -131 208
-131 85 0 129 -18 129 -52 0 -70 208 -132 293 -86 39 20 58 21 88 2 52 -32 69
-30 40 4 -16 20 -16 33 -2 41 12 8 21 4 21 -8 0 -12 36 -20 85 -18 l85 4 -75
8 c-82 8 -104 45 -27 45 27 0 62 5 79 11 18 8 33 -2 39 -25 9 -34 10 -34 12 0
1 19 -18 44 -43 54 -38 17 -32 19 35 15 107 -7 117 -29 47 -98 -45 -44 -77
-57 -139 -57 -44 0 -75 -8 -69 -18 16 -27 -744 -190 -1175 -253 l-96 -14 12
228 c13 237 43 587 63 732 9 65 20 85 49 85 76 0 74 154 -3 174 -34 9 -38 21
-25 83 37 178 12 268 -118 417 -46 53 -127 188 -180 301 -100 212 -125 237
-154 160z m130 -370 c31 -41 65 -82 77 -90 14 -9 12 -14 -4 -15 -15 0 -25 -26
-25 -63 0 -58 -5 -53 -62 60 -63 127 -98 155 -98 79 0 -24 -19 -83 -42 -131
-42 -87 -45 -199 -8 -290 19 -47 -113 -50 -151 -3 -49 59 -49 251 1 350 101
201 211 237 312 103z m-23 -163 c27 -59 32 -102 21 -180 -8 -64 -6 -102 6
-102 24 0 64 108 64 172 0 56 31 80 48 36 7 -17 12 -80 12 -140 l0 -108 -131
0 c-81 0 -127 8 -119 20 6 10 1 55 -12 98 -20 66 -18 94 13 180 44 123 53 125
98 24z m200 -61 c17 -32 30 -93 29 -135 -1 -71 -3 -69 -25 34 -13 61 -31 121
-40 135 -8 14 -11 25 -5 25 6 0 25 -27 41 -59z m1652 -81 c47 -98 79 -186 70
-195 -5 -6 -19 12 -29 40 -11 28 -31 58 -44 66 -18 11 -21 5 -10 -23 27 -68
23 -78 -32 -84 -39 -5 -62 7 -87 45 -35 53 -75 70 -58 24 25 -64 -27 -133
-101 -133 -90 0 -89 -20 8 -81 l78 -49 -28 -68 c-34 -81 -39 -75 72 -89 78
-11 83 -10 35 9 -38 15 -55 36 -55 68 0 51 84 28 138 -38 95 -114 -106 -115
-271 -1 -85 58 -171 86 -125 40 33 -33 252 -151 281 -151 48 0 63 -32 37 -80
-26 -48 -79 -51 -172 -10 -37 17 -98 43 -136 60 -86 38 -119 198 -49 242 9 6
17 37 17 68 0 37 14 66 38 79 20 11 44 45 51 75 20 77 48 106 103 106 29 0 64
23 92 61 49 67 148 77 177 19z m-3653 -12 c8 -21 4 -29 -13 -23 -94 36 -115
37 -115 6 0 -20 20 -32 55 -34 92 -5 102 -7 117 -22 8 -8 40 -15 71 -15 60 0
97 -46 97 -121 0 -26 16 -47 40 -53 23 -6 45 -33 52 -63 6 -29 19 -74 29 -99
46 -113 22 -201 -67 -239 -76 -34 -87 -32 -104 20 -12 38 -16 40 -24 10 -5
-19 -33 -40 -62 -47 -94 -20 -97 -29 -7 -20 58 6 81 2 68 -11 -34 -34 -174
-12 -181 28 -4 20 8 40 30 47 130 45 305 156 281 180 -6 6 -56 -22 -112 -62
-125 -89 -269 -109 -279 -38 -5 36 100 128 147 128 39 0 0 -96 -46 -115 -51
-21 -49 -22 25 -11 101 14 99 12 71 90 -19 56 -18 69 11 86 19 11 57 40 86 64
l52 45 -83 0 c-85 1 -137 77 -97 141 23 37 -17 20 -69 -29 -36 -35 -65 -46
-96 -38 -48 12 -58 37 -25 57 26 16 26 50 0 50 -12 0 -30 -24 -41 -53 -11 -29
-25 -48 -31 -42 -12 12 42 149 75 188 31 38 130 34 145 -5z m3702 -228 c-7
-11 -4 -20 7 -20 11 0 23 11 28 24 14 43 55 -5 55 -65 0 -64 32 -81 44 -24 14
65 76 -160 76 -275 0 -61 10 -122 22 -134 45 -45 -249 -265 -357 -266 -50 0
-24 37 30 44 61 7 88 82 45 123 -19 18 -21 8 -11 -40 30 -141 -215 -66 -387
121 -59 63 -53 64 66 11 55 -25 123 -39 168 -35 47 4 83 -5 100 -24 22 -26 24
-24 14 15 -14 50 24 64 43 15 6 -16 20 -30 30 -30 11 0 4 27 -16 59 -28 49
-30 68 -11 111 13 28 24 69 24 91 0 43 3 44 48 27 18 -7 32 -25 32 -40 0 -26
92 -62 111 -43 24 24 -20 74 -75 86 -39 8 -52 19 -37 28 13 9 -23 21 -81 28
-115 13 -184 53 -93 53 114 0 113 148 0 166 -33 5 -17 9 41 11 60 2 92 -5 84
-17z m-3942 -25 c10 -20 14 -20 24 0 15 32 192 33 224 1 76 -76 -17 -184 -176
-206 -55 -8 -95 -21 -90 -30 6 -9 -17 -23 -50 -30 -33 -7 -55 -22 -49 -32 6
-10 1 -18 -11 -18 -12 0 -17 -9 -10 -20 23 -37 72 -20 131 44 56 61 59 62 59
19 0 -25 13 -70 29 -101 25 -48 25 -63 -1 -112 -33 -63 -26 -86 12 -40 37 44
65 37 50 -15 -9 -33 -7 -37 7 -17 12 17 59 30 119 32 55 2 136 22 181 44 l82
40 -40 -55 c-111 -157 -417 -270 -394 -146 12 60 -16 82 -31 25 -17 -63 5 -98
58 -98 26 0 48 -9 48 -20 0 -43 -165 24 -174 70 -11 62 -43 119 -45 79 0 -23
10 -52 23 -65 61 -61 -27 -16 -100 51 l-82 75 16 160 c9 94 33 197 59 250 24
50 40 70 35 45 -5 -25 0 -45 10 -45 10 0 18 26 18 57 0 78 42 114 68 58z
m3868 -51 c10 -66 -109 -65 -122 1 -5 25 -7 15 -5 -22 3 -60 1 -63 -23 -31
-55 75 -15 129 80 109 46 -9 66 -25 70 -57z m-1459 -2 c14 -9 23 -38 20 -64
l-7 -48 -430 0 c-459 0 -470 3 -432 101 12 33 798 43 849 11z m-77 -252 c0
-98 -19 -115 -50 -45 -29 66 -112 60 -146 -10 -29 -60 -64 -57 -64 5 0 54 -68
88 -120 60 -22 -12 -40 -39 -40 -60 0 -59 -33 -64 -68 -10 -45 68 -126 68
-152 -1 -29 -74 -60 -41 -60 62 l0 89 350 0 350 0 0 -90z m-25 -138 c35 -35
-65 -51 -315 -51 -271 0 -360 10 -360 40 0 31 644 41 675 11z m-279 -116 c17
-17 24 -125 24 -360 l0 -336 -67 0 -68 0 -15 343 c-11 278 -9 345 13 359 38
25 85 22 113 -6z m211 -71 c29 -48 -18 -615 -52 -621 -37 -7 -52 378 -22 561
11 68 50 99 74 60z m-440 -158 c26 -308 18 -467 -25 -467 -35 0 -78 545 -47
605 30 59 60 1 72 -138z m1136 115 c26 -21 41 -45 34 -52 -16 -16 -117 47
-117 72 0 29 32 21 83 -20z m1257 -62 c0 -36 -81 -35 -100 0 -31 57 -24 93 9
49 28 -37 29 -37 18 11 l-10 50 41 -47 c23 -26 42 -54 42 -63z m-4320 59 c0
-12 9 -16 20 -9 26 16 25 3 -3 -59 -26 -56 -33 -59 -76 -32 -25 16 -25 26 -2
70 28 52 61 68 61 30z m1263 -20 c-26 -21 -62 -39 -80 -38 -26 0 -23 9 14 40
26 21 62 39 80 38 26 0 23 -9 -14 -40z m3606 -301 c15 -170 33 -385 40 -479
l12 -171 -195 -86 c-308 -135 -598 -242 -656 -242 -64 0 -8 37 135 90 636 235
726 304 614 480 -63 98 -79 148 -79 242 0 262 -172 339 -370 166 -53 -48 -82
-56 -216 -61 l-154 -7 -12 -64 c-7 -35 -9 -249 -5 -474 l7 -410 -210 -60
c-1221 -351 -2169 -368 -3342 -58 l-232 61 9 482 c12 567 -7 501 126 450 1014
-387 2293 -386 3409 3 172 60 250 93 830 347 137 60 253 107 256 104 3 -3 18
-144 33 -313z m-5429 211 c109 -58 148 -86 108 -79 -175 33 -233 -67 -238
-410 -6 -379 34 -462 261 -547 144 -53 159 -58 223 -64 77 -8 264 -86 306
-127 27 -26 26 -28 -7 -16 -20 8 -61 19 -90 26 -29 6 -120 37 -203 68 -82 31
-223 84 -312 118 -293 109 -268 83 -268 282 0 283 25 840 38 839 7 -1 89 -41
182 -90z m4757 48 c31 -50 2 -81 -67 -72 -47 6 -66 73 -27 97 43 27 65 21 94
-25z m-4068 -4 c34 -24 17 -113 -21 -113 -67 0 -107 73 -64 116 30 30 40 30
85 -3z m3347 -102 c23 -24 -15 -33 -84 -20 -96 18 -95 58 0 42 40 -6 78 -16
84 -22z m-2547 -10 c-30 -29 -129 -48 -129 -25 0 26 35 40 99 42 30 1 42 -5
30 -17z m-374 -21 c14 0 25 -9 25 -20 0 -24 -133 -27 -148 -3 -17 28 14 46 57
34 23 -6 52 -11 66 -11z m-844 -142 c170 -84 205 -119 194 -196 -5 -34 -20
-62 -32 -62 -56 1 -113 27 -113 52 0 29 -99 88 -149 88 -89 0 -33 -115 78
-160 177 -71 211 -114 211 -266 0 -189 -32 -212 -216 -157 -198 61 -244 102
-244 223 l0 96 70 -21 c59 -18 70 -31 70 -79 0 -63 74 -107 143 -85 102 32 28
142 -143 209 -134 53 -139 61 -140 204 0 233 51 262 271 154z m253 12 c19 -4
77 -27 130 -51 l96 -43 -70 -25 c-63 -23 -74 -21 -110 17 -22 23 -67 63 -100
89 -40 31 -47 42 -20 33 22 -7 55 -17 74 -20z m4640 -315 c5 -190 8 -346 8
-348 -1 -1 -33 -9 -70 -17 l-68 -14 12 71 c19 117 -21 104 -45 -15 -30 -141
-104 -169 -156 -60 -45 95 -72 85 -56 -21 l13 -89 -72 -13 c-93 -18 -85 -45
-93 325 -7 323 -7 324 39 345 63 29 70 22 158 -140 93 -170 94 -170 125 -4 51
276 68 305 184 323 7 1 16 -153 21 -343z m223 -200 c-15 -77 -7 -67 -62 -84
-51 -16 -70 115 -20 136 71 29 94 14 82 -52z m-5630 -475 c88 -1165 393 -2167
898 -2950 547 -846 1669 -2010 1939 -2010 288 0 1225 886 1745 1650 635 934
1067 2202 1114 3274 14 306 26 365 70 321 29 -29 -1 -418 -65 -845 -255 -1698
-1191 -3323 -2442 -4236 -403 -295 -465 -287 -929 106 -1011 857 -1800 2032
-2115 3152 -188 667 -368 1997 -253 1865 8 -9 25 -156 38 -327z m879 225 c6
-56 0 -65 -40 -65 -75 1 -103 29 -88 89 21 84 120 66 128 -24z m-591 -117
c206 -84 911 -348 929 -348 5 0 5 -43 2 -95 l-6 -95 -125 -6 c-118 -6 -125 -9
-125 -55 0 -37 11 -49 42 -49 44 0 44 -28 5 -192 -8 -34 1 -45 47 -54 31 -6
83 -22 116 -35 l60 -24 -80 -36 c-118 -53 -154 -50 -138 11 8 31 4 50 -10 50
-12 0 -22 -25 -22 -57 0 -178 -42 -283 -114 -283 -83 0 -93 -85 -11 -96 60 -9
59 -48 -16 -380 -33 -150 -56 -282 -51 -295 13 -34 408 -54 737 -37 l279 14
-12 72 c-19 115 -88 486 -103 555 -12 56 -8 64 34 70 78 11 77 97 -1 97 -54 0
-62 8 -73 75 -8 41 -39 179 -69 305 l-55 230 47 6 c38 5 48 19 48 66 l0 58
-109 -12 c-108 -13 -109 -13 -122 44 -7 32 -16 69 -20 83 -10 31 -3 31 131 -5
170 -46 718 -112 1050 -127 l300 -13 6 -95 6 -95 219 0 c292 0 280 19 267
-445 l-10 -355 101 0 c86 0 101 6 101 39 0 70 55 101 181 101 l119 0 0 245 c0
135 6 279 13 320 10 61 6 75 -20 75 -25 0 -33 19 -33 80 0 74 4 80 55 81 30 0
71 13 91 28 37 28 114 20 114 -11 0 -10 27 -18 60 -18 57 0 60 -4 60 -80 0
-58 -8 -80 -30 -80 -35 0 -38 -84 -17 -427 l13 -213 123 0 c133 0 171 -21 171
-94 0 -93 156 -65 164 29 5 57 15 75 43 75 47 0 65 881 18 899 -78 30 21 124
107 102 48 -12 73 -111 28 -111 -13 0 -20 -163 -20 -450 0 -387 4 -450 30
-450 21 0 30 -21 30 -70 0 -68 2 -70 80 -70 l80 0 0 371 0 370 283 -5 c205 -4
286 -13 292 -31 6 -19 -53 -25 -253 -25 l-262 0 0 -340 0 -340 170 0 c143 0
170 -5 170 -32 0 -27 -24 -31 -170 -25 -126 5 -170 1 -170 -18 0 -18 45 -25
160 -25 93 0 160 -8 160 -20 0 -12 -67 -20 -160 -20 l-160 0 0 -250 c0 -209
-5 -250 -30 -250 -25 0 -30 41 -30 250 l0 250 -80 0 -80 0 0 -260 0 -260 162
0 162 0 -13 -55 c-15 -61 -213 -462 -363 -737 l-98 -178 -11 93 c-17 149 -104
217 -277 217 -91 0 -104 6 -131 59 -59 114 -87 121 -471 121 -512 0 -500 15
-500 -612 l0 -434 -98 -104 c-220 -232 -213 -587 16 -771 45 -36 82 -73 82
-81 0 -15 -410 -338 -429 -338 -6 0 -8 628 -6 1395 l5 1395 760 5 760 5 -6
270 -6 270 -119 0 -119 0 0 -262 c0 -366 -47 -359 -56 9 l-5 253 -90 0 -89 0
0 -260 c0 -218 -5 -260 -30 -260 -25 0 -30 42 -30 260 l0 260 -125 0 -125 0 0
-254 0 -254 -210 6 c-269 7 -260 -2 -260 274 l0 228 -120 0 c-67 0 -120 9
-120 20 0 11 53 20 120 20 89 0 120 7 120 28 0 21 -26 25 -117 18 -75 -7 -123
-2 -132 12 -7 12 -53 22 -102 22 l-89 0 0 100 0 100 90 0 90 0 0 -90 0 -90
130 0 130 0 0 256 c0 296 -4 304 -154 304 -58 0 -106 9 -106 20 0 29 247 25
276 -4 16 -16 24 -112 24 -300 l0 -276 70 0 70 0 0 356 c0 250 -7 363 -24 380
-38 38 -416 33 -416 -6 0 -56 -216 -41 -224 15 -5 40 -18 45 -106 45 -92 0
-100 -3 -94 -45 6 -43 0 -45 -125 -45 l-131 0 0 -80 0 -80 110 0 110 0 0 -80
0 -80 -108 0 -108 0 -7 -91 c-9 -113 -13 -109 116 -109 l107 0 0 -100 0 -100
-110 0 -110 0 0 -317 0 -317 -813 -14 c-446 -8 -819 -8 -827 2 -8 9 -40 93
-69 186 -30 94 -67 206 -81 250 -214 642 -439 1870 -343 1870 7 0 114 -41 238
-92z m5240 -56 c20 20 38 -109 20 -146 -10 -20 -16 -63 -14 -96 1 -33 -2 -69
-8 -80 -7 -11 -9 -45 -6 -75 3 -30 -3 -55 -14 -55 -11 0 -23 -29 -27 -65 l-6
-65 -230 -11 -230 -11 235 -4 c156 -3 235 -11 235 -26 0 -15 -77 -20 -250 -15
-143 4 -250 -1 -250 -11 0 -10 -6 -13 -13 -6 -6 7 -12 82 -12 167 -1 123 -9
163 -38 195 -53 56 -20 130 63 142 6 1 30 13 55 27 25 14 55 19 65 13 11 -7
20 -4 20 7 0 11 29 27 65 35 36 9 72 17 80 19 8 2 28 5 44 7 15 1 43 17 61 35
28 28 36 29 52 5 14 -22 17 -21 18 8 0 28 7 31 37 15 21 -11 43 -15 48 -9z
m-1026 -401 c14 -16 19 -38 12 -49 -6 -10 -3 -25 9 -32 11 -7 20 -30 20 -52 0
-22 -9 -35 -20 -28 -11 7 -20 3 -20 -9 0 -11 8 -21 17 -21 9 0 19 -91 21 -201
1 -111 -5 -197 -14 -191 -10 5 -17 -2 -17 -18 0 -16 7 -24 16 -18 10 6 17 1
17 -10 0 -11 -9 -25 -20 -32 -11 -7 -19 -28 -19 -46 2 -28 5 -27 19 6 14 32
17 26 19 -33 l1 -72 -121 2 -120 3 7 335 c4 184 0 335 -9 335 -9 0 -17 27 -17
60 0 33 9 60 20 60 11 0 20 -8 20 -18 0 -25 74 -3 102 30 29 36 47 35 77 -1z
m-3279 -131 c0 -11 -49 -20 -110 -20 -60 0 -110 9 -110 20 0 11 50 20 110 20
61 0 110 -9 110 -20z m360 0 c0 -11 -45 -20 -100 -20 -55 0 -100 9 -100 20 0
11 45 20 100 20 55 0 100 -9 100 -20z m2031 -42 c-11 18 -10 24 3 16 53 -33
87 -626 36 -623 -11 1 -32 -10 -47 -26 -32 -31 -95 -24 -88 11 3 13 -2 24 -11
24 -9 0 -15 85 -15 190 1 104 7 190 14 190 7 0 9 18 3 40 -6 22 -17 35 -25 30
-17 -10 -61 77 -61 121 0 22 18 27 70 21 41 -5 70 0 70 12 0 12 14 9 34 -7 29
-23 31 -23 17 1z m-2231 -48 c-27 -16 -68 -29 -90 -29 -22 0 -62 13 -90 29
-47 27 -41 29 90 29 131 0 137 -2 90 -29z m-223 -12 c83 -29 79 -44 -17 -88
-95 -43 -104 -37 -88 47 15 71 17 72 105 41z m351 -10 c40 -103 16 -120 -98
-70 l-80 36 60 32 c76 41 103 42 118 2z m-145 -87 l47 -40 -125 0 c-140 -1
-149 5 -70 48 73 39 92 38 148 -8z m-14 -114 c-54 -27 -68 -27 -130 0 l-69 30
130 0 c130 0 130 0 69 -30z m2391 -48 c0 -33 -9 -59 -20 -59 -11 0 -20 32 -20
71 0 43 8 66 20 59 11 -7 20 -39 20 -71z m-2184 -25 l6 -73 -101 42 c-121 51
-125 63 -26 91 103 29 114 23 121 -60z m1284 36 c0 -25 -48 -30 -310 -30 -262
0 -310 5 -310 30 0 25 48 30 310 30 262 0 310 -5 310 -30z m-1460 -80 c47 -27
41 -29 -90 -29 -131 0 -137 2 -90 29 28 16 68 29 90 29 22 0 63 -13 90 -29z
m1480 -70 l0 -80 -90 0 -90 0 0 80 0 80 90 0 90 0 0 -80z m2440 50 c0 -16 9
-30 20 -30 11 0 20 9 20 20 0 11 9 20 20 20 27 0 25 -60 -4 -170 -27 -101 -54
-118 -59 -35 l-3 55 -8 -55 c-19 -121 -51 -54 -39 80 7 74 12 137 13 140 1 22
40 -2 40 -25z m-2664 -60 l0 -70 -98 0 -98 0 0 70 0 70 98 0 98 0 0 -70z
m1102 -15 c-1 -36 -9 -87 -18 -115 -12 -36 -16 -19 -14 65 2 63 10 115 19 115
8 0 14 -29 13 -65z m-2368 -7 c-43 -33 -160 -26 -197 11 -15 15 19 21 108 20
120 0 126 -2 89 -31z m-190 -33 c48 -19 46 -21 -50 -56 -130 -47 -150 -47
-150 -1 0 106 45 118 200 57z m408 13 c41 -107 21 -119 -121 -74 -129 40 -133
54 -22 81 121 29 129 29 143 -7z m-208 -78 c47 -27 43 -29 -80 -29 -119 0
-127 3 -91 30 48 36 106 36 171 -1z m1460 -60 l0 -50 -310 0 -310 0 0 50 0 50
310 0 310 0 0 -50z m-1120 -28 c0 -40 -732 -67 -828 -30 -93 36 9 48 398 48
239 0 430 -8 430 -18z m3640 -20 c0 -25 -86 -44 -107 -23 -10 10 -30 13 -45 7
-16 -6 -28 0 -28 12 0 13 38 22 90 22 50 0 90 -8 90 -18z m-3989 -73 c-42 -31
-76 -35 -146 -16 -83 22 -46 47 70 46 105 0 112 -3 76 -30z m1249 -69 l0 -100
-90 0 -90 0 0 87 c0 106 7 113 103 113 l77 0 0 -100z m-1550 59 c143 -38 144
-42 10 -89 -146 -51 -160 -47 -146 45 12 72 20 74 136 44z m578 -11 c7 -17 12
-52 12 -77 l0 -45 -139 41 c-154 45 -157 52 -34 85 120 33 147 32 161 -4z
m-245 -91 c121 -36 92 -49 -113 -48 -201 1 -231 12 -125 46 89 29 147 29 238
2z m17 -88 c0 -41 -143 -68 -210 -40 -101 42 -88 51 70 51 77 0 140 -5 140
-11z m-342 -49 c60 -11 113 -24 117 -29 10 -9 -163 -63 -265 -82 l-67 -13 21
83 c16 62 29 80 54 72 17 -6 81 -20 140 -31z m629 -55 c14 -76 12 -76 -154
-33 -143 36 -179 61 -111 76 248 54 247 55 265 -43z m633 25 c0 -40 -10 -50
-49 -50 -55 0 -80 28 -63 71 20 53 112 36 112 -21z m496 5 c-6 -43 -15 -45
-231 -51 l-225 -5 0 50 0 51 231 0 c229 0 232 -1 225 -45z m-1406 -70 l140
-35 -135 -6 c-74 -3 -196 -3 -270 0 l-135 6 120 33 c66 18 125 34 130 35 6 1
73 -14 150 -33z m906 -240 c-6 -213 -6 -215 -55 -215 l-49 0 4 210 c2 116 3
212 4 215 0 3 23 5 51 5 l50 0 -5 -215z m524 -5 l0 -220 -240 0 -240 0 0 220
0 220 240 0 240 0 0 -220z m-1430 135 c-50 -30 -249 -29 -301 1 -31 18 0 23
151 23 156 0 183 -5 150 -24z m-386 -17 c181 -38 156 -57 -148 -109 l-74 -13
19 67 c10 37 19 69 19 72 0 11 84 4 184 -17z m682 7 c5 -8 15 -40 22 -71 l13
-57 -92 14 c-153 23 -282 63 -249 76 99 40 291 64 306 38z m-250 -118 c224
-55 190 -67 -186 -67 -376 0 -415 14 -190 66 171 40 217 40 376 1z m744 -399
c0 -71 1 -72 70 -64 68 8 70 6 70 -58 0 -62 -4 -66 -70 -66 -65 0 -70 -5 -70
-61 0 -34 8 -56 19 -50 10 6 41 1 70 -12 40 -18 58 -18 76 0 34 34 69 29 136
-21 62 -46 75 -92 36 -131 -39 -39 11 -125 73 -125 47 0 50 -6 50 -110 0 -104
-3 -110 -49 -110 -72 0 -101 -65 -59 -131 68 -103 -194 -253 -285 -163 -26 27
79 57 125 37 63 -29 140 58 106 120 -34 65 -2 159 64 184 80 30 85 133 7 133
-61 0 -118 106 -87 163 40 75 -37 143 -115 101 -27 -15 -52 -13 -87 7 -72 40
-80 36 -80 -36 0 -53 11 -70 58 -91 152 -67 176 -298 42 -411 l-60 -50 0 -242
c0 -273 -5 -268 153 -162 115 78 309 281 268 281 -33 0 -25 51 23 149 53 111
68 113 95 16 37 -134 28 -230 -19 -205 -31 17 -40 15 -40 -8 0 -130 -131 -299
-330 -426 -77 -49 -174 -127 -215 -173 l-74 -83 -51 64 c-29 36 -127 113 -218
173 -178 116 -225 169 -305 343 -35 78 -60 109 -80 102 -59 -23 -58 179 2 260
26 35 32 29 82 -79 37 -81 47 -122 32 -131 -34 -21 158 -227 279 -302 123 -75
114 -83 119 100 l5 150 -90 -5 c-129 -6 -241 104 -188 184 42 66 13 131 -59
131 -46 0 -49 6 -49 110 0 104 3 110 50 110 62 0 112 86 73 125 -68 68 74 201
170 157 76 -34 127 -11 127 59 0 54 -6 59 -70 59 -64 0 -70 5 -70 60 0 57 4
60 80 60 78 0 80 2 80 70 0 70 0 70 90 70 l90 0 0 -72z m-580 26 c0 9 9 3 20
-14 18 -27 22 -27 39 0 35 53 73 -8 44 -70 -12 -29 -23 -70 -23 -92 0 -21 -13
-44 -30 -51 -16 -6 -25 -19 -19 -28 6 -10 -8 -29 -30 -43 -23 -14 -41 -37 -41
-51 0 -14 -10 -25 -21 -25 -13 0 -16 -17 -9 -40 7 -23 4 -40 -9 -40 -11 0 -21
11 -21 23 0 13 -6 18 -13 11 -7 -7 -4 -25 7 -39 14 -17 13 -44 -4 -83 -17 -41
-28 -50 -37 -30 -7 15 -9 4 -3 -26 6 -29 1 -59 -10 -66 -11 -7 -21 4 -22 24
-1 33 -32 -41 -46 -112 -3 -15 -22 -40 -44 -56 -21 -15 -38 -38 -38 -50 0 -12
-16 -31 -35 -43 -51 -33 -198 132 -184 206 8 40 6 43 -7 12 -20 -45 -55 -8
-37 39 7 18 1 24 -18 17 -18 -7 -29 1 -29 21 0 18 -18 50 -41 73 -22 22 -34
51 -27 63 8 13 5 17 -8 9 -12 -8 -32 15 -47 57 -14 38 -33 70 -42 70 -10 0
-12 8 -6 19 6 10 2 24 -9 31 -11 7 -16 20 -10 29 5 9 -5 22 -22 29 -25 9 -30
30 -22 87 6 41 7 59 1 40 -15 -53 -47 -42 -47 17 0 40 8 49 32 40 22 -9 29 -4
22 15 -9 23 48 27 333 25 188 -2 366 3 393 10 28 7 66 4 85 -6 19 -9 35 -10
35 -2z m1020 -29 c1 -29 4 -30 19 -6 14 23 21 18 31 -22 13 -52 -1 -226 -21
-258 -12 -21 -86 44 -75 66 5 8 -2 15 -14 15 -12 0 -17 9 -10 20 7 11 1 20
-14 20 -36 0 -91 125 -59 136 12 4 23 20 23 36 0 18 22 28 60 28 44 0 60 -10
60 -35z m1501 -379 c52 -35 78 -66 79 -91 0 -8 -86 -15 -192 -15 -392 0 -388
9 -388 -843 l0 -666 -94 -95 c-108 -109 -116 -112 -180 -53 -43 42 -46 58 -46
301 l0 257 110 106 c127 124 157 273 69 348 l-40 35 45 11 c68 16 82 288 15
309 -109 35 -139 1 -139 -158 0 -117 -7 -150 -32 -160 -28 -11 -31 22 -25 310
l7 321 65 59 66 58 315 0 c263 0 323 -6 365 -34z m98 -581 l0 -415 -265 -276
c-145 -151 -268 -275 -274 -275 -5 1 -8 291 -4 646 l5 645 51 45 c46 41 70 45
269 45 l219 0 -1 -415z m323 357 c112 -113 -18 -444 -273 -700 -5 -5 -9 164
-9 375 l0 383 112 0 c96 0 119 -8 170 -58z m-1046 -327 c5 -73 -1 -98 -26
-108 -50 -19 -64 13 -55 119 13 135 72 127 81 -11z m-51 -231 c66 -57 45 -156
-55 -260 l-89 -94 -1 69 c0 43 16 85 42 113 37 40 40 53 19 116 -37 112 -6
133 84 56z m-230 -461 c-112 -169 -115 -276 -12 -431 85 -128 74 -211 -16
-118 -171 178 -175 476 -9 670 l72 85 6 -67 c5 -44 -9 -90 -41 -139z m-531
-38 c-5 -27 -22 -53 -38 -59 -23 -9 -24 -15 -4 -27 14 -9 28 -28 31 -42 3 -15
11 -49 19 -75 9 -30 7 -44 -5 -36 -13 8 -20 -43 -19 -137 1 -82 10 -149 19
-149 10 0 8 -12 -4 -26 -12 -15 -18 -72 -13 -130 5 -57 0 -104 -10 -104 -10 0
-13 15 -6 33 10 25 5 31 -19 22 -18 -7 -36 0 -43 16 -6 16 -26 29 -44 29 -18
0 -63 31 -99 70 -37 39 -80 70 -98 70 -17 0 -31 10 -31 21 0 12 10 15 21 8 12
-7 10 5 -4 28 -14 22 -46 46 -72 52 -29 8 -41 21 -33 37 8 13 7 17 -2 9 -21
-19 -73 24 -59 47 6 10 2 18 -10 18 -11 0 -21 14 -21 30 0 17 13 30 30 30 16
0 28 7 25 15 -3 8 4 18 15 21 11 4 27 20 36 36 9 16 25 23 36 17 10 -7 18 -5
16 5 -9 50 5 68 42 56 30 -10 37 -5 28 19 -9 22 0 31 31 31 24 0 38 9 31 20
-7 11 0 20 16 20 15 0 44 18 65 41 20 22 48 36 62 30 15 -5 26 -3 24 5 -5 38
6 51 22 25 16 -25 21 -24 33 8 21 53 45 -14 32 -84z m572 -301 l-6 -94 -35 64
c-19 35 -35 96 -35 136 0 40 16 101 35 136 l35 64 6 -106 c3 -58 3 -148 0
-200z"/>
<path d="M4900 7420 c-16 -9 -48 -24 -70 -32 -35 -14 -34 -16 16 -23 55 -8
114 22 114 57 0 22 -20 21 -60 -2z"/>
<path d="M4660 6786 c0 -47 37 -67 117 -64 l53 1 -60 18 c-33 10 -71 34 -85
52 -23 32 -25 31 -25 -7z"/>
<path d="M1174 7148 c-38 -39 -13 -127 39 -141 72 -18 117 15 117 85 0 58
-113 98 -156 56z m136 -58 c0 -27 -16 -42 -47 -47 -59 -8 -89 19 -71 65 19 50
118 35 118 -18z"/>
<path d="M1420 5790 c0 -72 11 -80 140 -94 l50 -6 6 -265 c4 -192 12 -265 30
-265 13 0 44 -6 69 -13 45 -12 45 -11 45 241 0 275 -6 264 125 234 l75 -18 0
77 0 76 -115 22 c-63 12 -177 36 -252 52 -180 38 -173 40 -173 -41z"/>
<path d="M4320 5778 c-49 -10 -136 -27 -193 -39 l-103 -21 2 -310 c2 -303 3
-310 43 -300 23 6 48 12 56 12 8 0 15 39 15 88 0 132 97 145 201 27 63 -72 77
-79 135 -66 l65 14 -58 74 -58 73 47 36 c99 74 54 454 -51 432 -6 -1 -51 -10
-101 -20z m90 -208 c0 -92 -35 -116 -196 -139 l-96 -14 6 107 c7 117 39 136
216 129 68 -3 70 -5 70 -83z"/>
<path d="M2680 5332 l0 -312 59 0 c55 0 59 6 65 85 6 82 8 85 76 86 385 6 420
24 420 226 0 199 -20 212 -348 220 l-272 6 0 -311z m429 168 c39 -14 51 -33
51 -79 0 -80 -46 -101 -219 -101 l-141 0 0 100 0 100 129 0 c70 0 151 -9 180
-20z"/>
<path d="M4660 5289 c0 -69 3 -71 65 -65 105 10 111 136 6 136 -68 0 -71 -3
-71 -71z"/>
<path d="M1964 5156 c5 -59 13 -67 72 -72 65 -7 67 -5 60 60 -5 59 -13 67 -72
72 -65 7 -67 5 -60 -60z"/>
<path d="M3360 5080 c0 -55 6 -60 70 -60 64 0 70 5 70 60 0 55 -6 60 -70 60
-64 0 -70 -5 -70 -60z"/>
<path d="M4075 4626 c-126 -20 -68 -86 75 -86 117 0 130 4 130 40 0 25 -13 40
-35 40 -19 0 -53 4 -75 8 -22 4 -65 3 -95 -2z"/>
<path d="M4060 4470 c0 -22 22 -30 80 -30 58 0 80 8 80 30 0 22 -22 30 -80 30
-58 0 -80 -8 -80 -30z"/>
<path d="M4888 4140 c0 -159 3 -225 7 -145 4 80 4 210 0 290 -4 80 -7 15 -7
-145z"/>
<path d="M4060 4330 c0 -68 2 -70 80 -70 78 0 80 2 80 70 0 68 -2 70 -80 70
-78 0 -80 -2 -80 -70z"/>
<path d="M4060 4041 l0 -181 91 0 90 0 -9 175 -9 175 -82 6 -81 6 0 -181z"/>
<path d="M3771 3789 c-54 -55 -35 -69 97 -69 122 0 185 41 136 89 -25 25 -202
10 -233 -20z"/>
<path d="M4060 3770 c0 -46 7 -50 90 -50 83 0 90 4 90 50 0 46 -7 50 -90 50
-83 0 -90 -4 -90 -50z"/>
<path d="M4300 3770 c0 -48 5 -50 120 -50 128 0 179 59 75 87 -115 31 -195 16
-195 -37z"/>
<path d="M4820 3770 c0 -44 9 -50 70 -50 61 0 70 6 70 50 0 44 -9 50 -70 50
-61 0 -70 -6 -70 -50z"/>
<path d="M3333 3667 c-30 -30 -9 -47 57 -47 49 0 70 9 70 30 0 31 -100 44
-127 17z"/>
<path d="M3509 3663 c-30 -30 3 -44 91 -39 55 3 98 15 95 26 -5 19 -168 31
-186 13z"/>
<path d="M3752 3665 c-34 -34 1 -46 118 -41 72 3 130 15 130 26 0 21 -228 36
-248 15z"/>
<path d="M4060 3650 c0 -22 23 -30 90 -30 67 0 90 8 90 30 0 22 -23 30 -90 30
-67 0 -90 -8 -90 -30z"/>
<path d="M4300 3650 c0 -23 27 -30 120 -30 93 0 120 7 120 30 0 23 -27 30
-120 30 -93 0 -120 -7 -120 -30z"/>
<path d="M4600 3650 c0 -22 22 -30 80 -30 58 0 80 8 80 30 0 22 -22 30 -80 30
-58 0 -80 -8 -80 -30z"/>
<path d="M4814 3667 c-26 -25 10 -47 77 -47 48 0 69 9 69 30 0 30 -119 44
-146 17z"/>
<path d="M5000 3650 c0 -22 22 -30 80 -30 58 0 80 8 80 30 0 22 -22 30 -80 30
-58 0 -80 -8 -80 -30z"/>
<path d="M3320 3389 c0 -265 3 -269 211 -269 l169 0 0 80 0 80 -96 0 c-126 0
-144 22 -144 174 l0 126 -70 0 -70 0 0 -191z"/>
<path d="M3504 3468 c11 -123 32 -147 131 -148 l65 0 0 130 0 130 -102 0 -103
0 9 -112z"/>
<path d="M4596 3309 c-6 -263 -5 -271 34 -260 22 6 60 11 85 11 44 0 45 4 45
260 l0 260 -79 0 -79 0 -6 -271z"/>
<path d="M4820 3320 l0 -260 70 0 70 0 0 260 0 260 -70 0 -70 0 0 -260z"/>
<path d="M1960 2520 c-43 -32 -45 -42 -24 -89 33 -74 -16 -171 -87 -171 -73 0
-72 -110 2 -129 72 -17 116 -122 77 -181 -36 -56 42 -142 110 -121 22 7 59 3
81 -9 69 -37 58 108 -12 154 -146 95 -132 359 23 430 36 16 50 38 50 79 0 60
-12 68 -60 38 -20 -13 -43 -10 -71 8 -36 23 -48 22 -89 -9z"/>
<path d="M2101 2312 c-42 -51 -49 -167 -13 -222 54 -83 72 -59 72 100 0 149
-13 176 -59 122z"/>
<path d="M2441 2195 c-1 -154 18 -192 58 -116 34 62 25 172 -18 224 l-40 47 0
-155z"/>
<path d="M4040 1942 c0 -73 10 -79 106 -67 120 15 103 112 -21 121 -82 6 -85
5 -85 -54z"/>
<path d="M3960 1700 l0 -102 165 6 165 6 0 90 0 90 -165 6 -165 6 0 -102z
m296 5 c6 -43 0 -45 -125 -45 -114 0 -131 5 -131 37 0 84 245 92 256 8z"/>
</g>
</svg>
